<svg id="圖層_1" data-name="圖層 1" xmlns="http://www.w3.org/2000/svg" viewBox="0 0 510.57 40.47"><defs><style>.cls-1{fill:#fff;}.cls-2{fill:none;stroke:#fff;stroke-miterlimit:10;stroke-width:0.74px;}</style></defs><title>logo_olily_w</title><path class="cls-1" d="M47.46,26c0,1.94-3.88,2.88-11.65,2.88H22.45c-7.85,0-11.73-.94-11.73-2.88V12.57c0-2,3.88-3,11.73-3H35.81c7.77,0,11.65,1,11.65,3Zm10.72.09V12.43c0-3.64-2.56-6.09-7.61-7.44-3.34-.89-8.31-1.29-15-1.29H22.45C7.46,3.7,0,6.6,0,12.43v13.7c0,3.25,2.64,5.64,7.93,7.08a55.89,55.89,0,0,0,14.52,1.6H35.58C50.64,34.81,58.18,31.87,58.18,26.08Z"/><path class="cls-1" d="M87.65,34.81a71.57,71.57,0,0,1-15-1.22c-5.39-1.32-8.05-3.66-8.05-7.16V4.26H75.05V26.43c0,1.22,1.74,2,5.39,2.39C82,29,84.54,29,88,29h26v5.8Z"/><path class="cls-1" d="M120.59,35V4.22h10.48V35Z"/><path class="cls-1" d="M160.82,34.81a71.75,71.75,0,0,1-15-1.22c-5.39-1.32-8-3.66-8-7.16V4.26h10.47V26.43c0,1.22,1.74,2,5.39,2.39,1.52.14,4.1.19,7.59.19h26v5.8Z"/><path class="cls-1" d="M208,22.29V35h-10.4V22.29L167.83,4.07H182l20.72,12.71L223.62,4.07h13.82Z"/><path class="cls-1" d="M385.71,35.89a1.2,1.2,0,0,1-.57.43,2,2,0,0,1-.77.19c-1.67,0-2.51-.9-2.51-2.72a3.08,3.08,0,0,1,.68-2,2.21,2.21,0,0,1,1.76-.8,1.61,1.61,0,0,1,1.41.76Zm1.34,1.61V26.87h-1.34v3.49a2.67,2.67,0,0,0-1.8-.55,3.12,3.12,0,0,0-2.45,1.2,4.35,4.35,0,0,0-1,2.9,4,4,0,0,0,.88,2.71,3,3,0,0,0,2.33,1,2.85,2.85,0,0,0,2.06-.69v.56Z"/><path class="cls-1" d="M393.63,31.55a1.91,1.91,0,0,1,.52,1.35h-4.23a2.07,2.07,0,0,1,.67-1.37A2.12,2.12,0,0,1,392.1,31,2,2,0,0,1,393.63,31.55Zm1.87,1.5a3.13,3.13,0,0,0-.9-2.33,3.54,3.54,0,0,0-2.56-.91,3.36,3.36,0,0,0-2.43,1,4,4,0,0,0-1.14,3,3.74,3.74,0,0,0,1.12,2.86,3.36,3.36,0,0,0,2.44,1,5.35,5.35,0,0,0,1.8-.29,2.63,2.63,0,0,0,1-.55l-.57-1a2.88,2.88,0,0,1-1.93.66,2.34,2.34,0,0,1-1.67-.61,2.72,2.72,0,0,1-.73-2h5.49A3,3,0,0,0,395.5,33.05Z"/><path class="cls-1" d="M396.44,37.06l.48-1.28a3.59,3.59,0,0,0,1.81.73c.83,0,1.24-.34,1.24-1,0-.5-.4-.92-1.21-1.28a10.11,10.11,0,0,1-1.25-.64,2.38,2.38,0,0,1-.55-.49,1.88,1.88,0,0,1-.36-.6,1.85,1.85,0,0,1-.12-.67,1.7,1.7,0,0,1,.69-1.45,2.84,2.84,0,0,1,1.79-.53,5.9,5.9,0,0,1,2.09.52l-.38,1.24a2.63,2.63,0,0,0-1.61-.62,1.35,1.35,0,0,0-.82.23.67.67,0,0,0-.33.56,1.18,1.18,0,0,0,.83,1.1l1,.44a3.27,3.27,0,0,1,1.29.92,2,2,0,0,1,.4,1.29,1.93,1.93,0,0,1-.71,1.58,3.08,3.08,0,0,1-2,.58A4.59,4.59,0,0,1,396.44,37.06Z"/><path class="cls-1" d="M404.23,27.11a.81.81,0,0,1,.59.24.77.77,0,0,1,.25.58.79.79,0,0,1-.25.59.81.81,0,0,1-.59.24.78.78,0,0,1-.58-.24.79.79,0,0,1-.25-.59.78.78,0,0,1,.24-.58A.81.81,0,0,1,404.23,27.11Zm-.75,10.39V31.1h-1V30h2.38V37.5Z"/><path class="cls-1" d="M410.65,31.38a1.72,1.72,0,0,1,.44,1.19,2,2,0,0,1-.41,1.32,1.35,1.35,0,0,1-1.12.5,1.43,1.43,0,0,1-1.16-.52,1.92,1.92,0,0,1-.43-1.3,1.67,1.67,0,0,1,.44-1.19,1.48,1.48,0,0,1,1.15-.49A1.38,1.38,0,0,1,410.65,31.38ZM408,40.21a5.18,5.18,0,0,0,1.56.25,4.17,4.17,0,0,0,2.4-.64,2,2,0,0,0,.94-1.68,1.84,1.84,0,0,0-.63-1.48,2.68,2.68,0,0,0-1.76-.54,7.18,7.18,0,0,0-1,.12,5.94,5.94,0,0,1-1,.12c-.46,0-.7-.1-.7-.29s.12-.27.33-.35a1.79,1.79,0,0,1,.54-.16l1.12-.12a2.85,2.85,0,0,0,1.88-.88,2.69,2.69,0,0,0,.73-1.92A2.77,2.77,0,0,0,412,30.9l.8-.6-.88-.83-.68.8a3.28,3.28,0,0,0-3.81.33,2.83,2.83,0,0,0,.78,4.56,2.32,2.32,0,0,0-.95.44.86.86,0,0,0-.37.68c0,.81.53,1.22,1.62,1.22a5.92,5.92,0,0,0,.93-.11,4.17,4.17,0,0,1,.83-.12c.89,0,1.33.31,1.33.92a.9.9,0,0,1-.52.78,2.87,2.87,0,0,1-1.46.32,4.06,4.06,0,0,1-2.18-.78l-.73,1.07A4.64,4.64,0,0,0,408,40.21Z"/><path class="cls-1" d="M419,37.5V33.12a2.93,2.93,0,0,0-.37-1.69,1.44,1.44,0,0,0-1.23-.48,2.09,2.09,0,0,0-1,.28,2.21,2.21,0,0,0-.77.67v5.6h-1.35V30h.93l.42,1a2.35,2.35,0,0,1,2.18-1.13c1.67,0,2.5,1,2.5,3V37.5Z"/><path class="cls-1" d="M294,37.51V31.09h-1V30h2.4v7.54Zm.74-10.4a.78.78,0,0,1,.59.25.76.76,0,0,1,.25.58.79.79,0,0,1-.25.59.81.81,0,0,1-.59.24.82.82,0,0,1-.83-.83.82.82,0,0,1,.83-.83Z"/><path class="cls-1" d="M302.15,37.51V33.12a2.82,2.82,0,0,0-.37-1.68,1.41,1.41,0,0,0-1.22-.49,2.36,2.36,0,0,0-1.75,1v5.6h-1.35V30h.93l.42,1A2.37,2.37,0,0,1,301,29.83c1.67,0,2.5,1,2.5,3v4.67Z"/><path class="cls-1" d="M305.91,31H305V30h.88V28.39l1.35-.52V30h2.09V31h-2.09v3.75a2.24,2.24,0,0,0,.32,1.36,1.31,1.31,0,0,0,1.05.4,2.58,2.58,0,0,0,1.07-.26l.2,1.17a7.55,7.55,0,0,1-1.84.22,2,2,0,0,1-1.53-.67,2.39,2.39,0,0,1-.62-1.68Z"/><path class="cls-1" d="M317.62,33.87h-5.49a2.72,2.72,0,0,0,.73,2,2.32,2.32,0,0,0,1.66.62,2.89,2.89,0,0,0,1.94-.67l.57,1a2.53,2.53,0,0,1-1,.54,5.17,5.17,0,0,1-1.81.3,3.41,3.41,0,0,1-2.44-1,3.78,3.78,0,0,1-1.12-2.86,4,4,0,0,1,1.15-3,3.34,3.34,0,0,1,2.43-1,3.48,3.48,0,0,1,2.55.91,3.07,3.07,0,0,1,.9,2.31A3,3,0,0,1,317.62,33.87ZM314.34,31a2.17,2.17,0,0,0-1.52.58,2.12,2.12,0,0,0-.66,1.37h4.22a1.89,1.89,0,0,0-.51-1.35A2,2,0,0,0,314.34,31Z"/><path class="cls-1" d="M323.29,31.26a1.48,1.48,0,0,0-2.14.35,2.4,2.4,0,0,0-.54,1.58v4.32h-1.35V30h1.35v1.2a2.36,2.36,0,0,1,2.2-1.34,6.44,6.44,0,0,1,1,.12Z"/><path class="cls-1" d="M329.5,37.51V33.12a2.9,2.9,0,0,0-.36-1.68,1.44,1.44,0,0,0-1.23-.49,2.09,2.09,0,0,0-1,.28,2.14,2.14,0,0,0-.77.68v5.6h-1.36V30h.93l.43,1a2.34,2.34,0,0,1,2.18-1.11c1.67,0,2.51,1,2.51,3v4.67Z"/><path class="cls-1" d="M337.08,36.65a3,3,0,0,1-2.48,1,2.22,2.22,0,0,1-2.21-2.25,2.35,2.35,0,0,1,1-1.94,4.08,4.08,0,0,1,2.59-.8,2.85,2.85,0,0,1,1,.19c0-1.23-.55-1.84-1.65-1.84a2.67,2.67,0,0,0-1.95.68l-.57-1.12a3.33,3.33,0,0,1,1.07-.53,4.08,4.08,0,0,1,1.3-.22,3.37,3.37,0,0,1,2.41.74,3.25,3.25,0,0,1,.75,2.38v2.7A1.39,1.39,0,0,0,338.9,37v.67a2.61,2.61,0,0,1-1.23-.23A1.38,1.38,0,0,1,337.08,36.65ZM337,33.81a4.31,4.31,0,0,0-.89-.14,2.55,2.55,0,0,0-1.67.52,1.53,1.53,0,0,0-.65,1.23c0,.79.46,1.18,1.4,1.18a2.28,2.28,0,0,0,1.81-1Z"/><path class="cls-1" d="M340.92,31H340V30h.88V28.39l1.35-.52V30h2.09V31h-2.09v3.75a2.24,2.24,0,0,0,.32,1.36,1.31,1.31,0,0,0,1.05.4,2.58,2.58,0,0,0,1.07-.26l.2,1.17a7.55,7.55,0,0,1-1.84.22,2,2,0,0,1-1.53-.67,2.39,2.39,0,0,1-.62-1.68Z"/><path class="cls-1" d="M346.87,37.51V31.09h-1.05V30h2.4v7.54Zm.74-10.4a.78.78,0,0,1,.59.25.79.79,0,0,1,.25.58.83.83,0,0,1-.25.59.85.85,0,0,1-1.18,0,.83.83,0,0,1-.25-.59.78.78,0,0,1,.25-.59A.79.79,0,0,1,347.61,27.11Z"/><path class="cls-1" d="M349.87,33.72a4.13,4.13,0,0,1,.95-2.82,3.55,3.55,0,0,1,5,0,4.21,4.21,0,0,1,.9,2.86,4.19,4.19,0,0,1-.92,2.88,3.2,3.2,0,0,1-2.52,1.06,3.16,3.16,0,0,1-2.54-1.07A4.24,4.24,0,0,1,349.87,33.72Zm1.42,0c0,1.9.68,2.84,2,2.84a1.7,1.7,0,0,0,1.48-.76,3.54,3.54,0,0,0,.54-2.08c0-1.87-.67-2.8-2-2.8a1.75,1.75,0,0,0-1.48.75A3.42,3.42,0,0,0,351.29,33.72Z"/><path class="cls-1" d="M362.88,37.51V33.12a2.89,2.89,0,0,0-.37-1.68,1.42,1.42,0,0,0-1.23-.49,2,2,0,0,0-1,.28,2.09,2.09,0,0,0-.78.68v5.6h-1.35V30h.92l.43,1a2.35,2.35,0,0,1,2.18-1.11c1.67,0,2.51,1,2.51,3v4.67Z"/><path class="cls-1" d="M370.46,36.65a3,3,0,0,1-2.49,1,2.24,2.24,0,0,1-2.21-2.25,2.38,2.38,0,0,1,1-1.94,4.08,4.08,0,0,1,2.59-.8,2.91,2.91,0,0,1,1,.19c0-1.23-.55-1.84-1.65-1.84a2.64,2.64,0,0,0-1.95.68l-.57-1.12a3.27,3.27,0,0,1,1.06-.53,4.12,4.12,0,0,1,1.3-.22,3.34,3.34,0,0,1,2.41.74,3.25,3.25,0,0,1,.75,2.38v2.7a1.38,1.38,0,0,0,.6,1.33v.67a2.68,2.68,0,0,1-1.24-.23A1.32,1.32,0,0,1,370.46,36.65Zm-.13-2.84a4.48,4.48,0,0,0-.9-.14,2.57,2.57,0,0,0-1.67.52,1.56,1.56,0,0,0-.65,1.23c0,.79.47,1.18,1.4,1.18a2.3,2.3,0,0,0,1.82-1Z"/><path class="cls-1" d="M373.91,35.38V26.87h1.36v8.28a1.21,1.21,0,0,0,1.27,1.31v1.2C374.79,37.66,373.91,36.9,373.91,35.38Z"/><path class="cls-1" d="M426.11,39.58l.74-1.07a4,4,0,0,0,2.17.78,2.81,2.81,0,0,0,1.45-.31.92.92,0,0,0,.53-.78c0-.61-.44-.92-1.34-.92a6,6,0,0,0-.82.11,5.1,5.1,0,0,1-.93.12c-1.09,0-1.63-.41-1.63-1.21a.87.87,0,0,1,.38-.68,2.46,2.46,0,0,1,.95-.44A2.64,2.64,0,0,1,426,32.59a2.6,2.6,0,0,1,.83-2,2.87,2.87,0,0,1,2.06-.79,3,3,0,0,1,1.76.45l.67-.8.88.83-.81.6a2.76,2.76,0,0,1,.52,1.75,2.73,2.73,0,0,1-.72,1.92,2.83,2.83,0,0,1-1.88.88l-1.12.12a1.9,1.9,0,0,0-.53.15c-.23.08-.34.2-.34.34s.24.29.7.29a6.84,6.84,0,0,0,1-.11,7.11,7.11,0,0,1,1-.11,2.68,2.68,0,0,1,1.76.53,1.84,1.84,0,0,1,.63,1.48,2,2,0,0,1-.94,1.68,4.15,4.15,0,0,1-2.39.64,4.9,4.9,0,0,1-1.56-.26A4.27,4.27,0,0,1,426.11,39.58ZM429,30.9a1.48,1.48,0,0,0-1.15.5,1.76,1.76,0,0,0-.44,1.2,1.94,1.94,0,0,0,.43,1.3,1.54,1.54,0,0,0,2.29,0,2.06,2.06,0,0,0,.4-1.32,1.76,1.76,0,0,0-.44-1.2A1.39,1.39,0,0,0,429,30.9Z"/><path class="cls-1" d="M437.85,31.26a1.49,1.49,0,0,0-2.15.35,2.4,2.4,0,0,0-.54,1.58v4.32h-1.35V30h1.35v1.2a2.37,2.37,0,0,1,2.2-1.34,6.54,6.54,0,0,1,1.05.12Z"/><path class="cls-1" d="M438.87,33.72a4.13,4.13,0,0,1,.95-2.82,3.55,3.55,0,0,1,5,0,4.16,4.16,0,0,1,.91,2.86,4.19,4.19,0,0,1-.93,2.88,3.54,3.54,0,0,1-5.06,0A4.29,4.29,0,0,1,438.87,33.72Zm1.43,0c0,1.9.67,2.84,2,2.84a1.72,1.72,0,0,0,1.49-.76,3.62,3.62,0,0,0,.53-2.08c0-1.87-.67-2.8-2-2.8a1.73,1.73,0,0,0-1.47.75A3.35,3.35,0,0,0,440.3,33.72Z"/><path class="cls-1" d="M448.47,30v4.81c0,1.17.51,1.75,1.53,1.75a2.12,2.12,0,0,0,1.22-.38,1.84,1.84,0,0,0,.74-.88V30h1.35v7.54H452v-1a2.1,2.1,0,0,1-.92.82,2.86,2.86,0,0,1-1.34.37,2.5,2.5,0,0,1-1.92-.72,2.84,2.84,0,0,1-.66-2V30Z"/><path class="cls-1" d="M456.51,37.1v3.37h-1.36V30h1.36v.62a2.52,2.52,0,0,1,1.85-.76,3.23,3.23,0,0,1,2.53,1,4.23,4.23,0,0,1,.9,2.93,4.24,4.24,0,0,1-.91,2.81,3.25,3.25,0,0,1-2.63,1.09,3.69,3.69,0,0,1-1-.17A1.45,1.45,0,0,1,456.51,37.1Zm0-5.5V36a1.16,1.16,0,0,0,.54.37,2.13,2.13,0,0,0,.8.17q2.52,0,2.52-2.82a3.05,3.05,0,0,0-.6-2.09,2.44,2.44,0,0,0-1.91-.67,1.75,1.75,0,0,0-.7.2A2.07,2.07,0,0,0,456.51,31.6Z"/><path class="cls-1" d="M295.52,18.9h10.25c.13,0,.2.1.2.26v.77c0,.25-.07.37-.2.37H295.52v1.22c0,.2-.12.29-.36.29h-.94a.25.25,0,0,1-.29-.29V1.11a.25.25,0,0,1,.29-.27h11.84c.12,0,.2.1.2.27v.77c0,.24-.08.36-.2.36H295.52Zm5.08-7.54c.24,0,.38.1.38.29v5.54c0,.19-.14.29-.38.29h-.75c-.26,0-.38-.1-.38-.29v-.55h-1.59v.55c0,.19-.15.29-.39.29h-.74c-.27,0-.39-.1-.39-.29V11.65c0-.19.12-.29.39-.29Zm-1.13,4V12.69h-1.59v2.62Zm5.08-11.55c.24,0,.38.09.38.28V9.77c0,.2-.14.29-.38.29h-.94c-.19,0-.27-.09-.27-.29V9.2h-3.78v.48c0,.19-.12.29-.36.29h-.94a.26.26,0,0,1-.29-.29V4c0-.19.1-.28.29-.28Zm-1.21,4V5.15h-3.78V7.8Zm2.82,3.56c.17,0,.26.08.26.2v5.73c0,.14-.09.19-.26.19h-.77c-.19,0-.26-.05-.26-.19v-.65h-1.71v.65c0,.14-.1.19-.27.19h-.77c-.19,0-.26-.05-.26-.19V11.65c0-.19.07-.29.26-.29Zm-1,4V12.69h-1.71v2.62Zm6.66-8.54c0,.16-.07.26-.19.28a.7.7,0,0,0-.26.65v3.76a13.09,13.09,0,0,0,.19,1.69,23.08,23.08,0,0,0,.67,2.76,11.79,11.79,0,0,0,1.11,2.39,12.78,12.78,0,0,0,2,2.48c0,.09-.07.17-.19.24s-.55.38-.86.62a.52.52,0,0,1-.37.17A14.82,14.82,0,0,1,312.47,20a13,13,0,0,1-1.33-2.55c-.14-.38-.28-.79-.41-1.28a11.56,11.56,0,0,1-.4,1.14,9.89,9.89,0,0,1-1.5,2.5,11.63,11.63,0,0,1-2.21,2c-.1,0-.17-.07-.24-.19a4.53,4.53,0,0,0-.7-.63c-.15-.09-.19-.16-.19-.21a11,11,0,0,0,2.19-2,7.77,7.77,0,0,0,1.13-1.92,13.11,13.11,0,0,0,.72-2.79,23.67,23.67,0,0,0,.19-2.94V6.77c0-.2,0-.29.1-.29A10.05,10.05,0,0,1,311.79,6.77ZM309.58.55c.14.12.24.22.24.29a.25.25,0,0,1-.19.27c-.15,0-.22.12-.22.33-.19,1-.34,1.86-.46,2.51h5.66a1,1,0,0,1,.46.09c.31.25.48.44.48.56l-2.09,5.2c0,.12-.1.17-.15.17-.89-.24-1.32-.48-1.32-.68l1.66-3.95h-5.06a23,23,0,0,1-.65,2.24c-.29.7-.55,1.33-.84,1.91a1.3,1.3,0,0,1-.48-.08c-.29-.12-.58-.24-.87-.33-.12-.05-.17-.1-.17-.15a.31.31,0,0,1,.07-.21,16.84,16.84,0,0,0,1.26-3.09c.21-.69.41-1.44.57-2.24A29,29,0,0,0,308,.19c0-.12.08-.19.12-.19Z"/><path class="cls-1" d="M335.7,7.92c.16.1.26.17.26.24a.31.31,0,0,1-.26.34c-.32.05-.51.14-.58.31-.51,1.78-1.18,3.83-2.05,6.12-.58,1.54-1.15,3-1.76,4.43h8.05c.19,0,.28.09.28.29v.93c0,.25-.09.39-.28.39H318.48c-.19,0-.29-.14-.29-.39v-.93a.25.25,0,0,1,.29-.29h11c.72-1.71,1.45-3.52,2.19-5.4a47.24,47.24,0,0,0,1.71-6.38c.08-.16.15-.26.2-.26ZM330.23.55c0,.22-.1.34-.24.36s-.22.2-.22.49V3.85h8.55c.19,0,.29.12.29.36V5c0,.24-.1.36-.29.36h-18.9c-.19,0-.29-.12-.29-.36V4.21c0-.24.1-.36.29-.36H328V.55c0-.19.12-.29.38-.29C329.6.26,330.23.36,330.23.55Zm-4.81,12.23a40.54,40.54,0,0,1,1.25,4.41c0,.1-.58.29-1.71.58a24,24,0,0,0-.92-3.85,36.63,36.63,0,0,0-2-5.28c0-.09.45-.38,1.42-.84Q324.68,10.55,325.42,12.78Z"/><path class="cls-1" d="M352.91,1.76a17.29,17.29,0,0,1-2.39.77l-.53.12V6.86h4.5c.2,0,.29.12.29.36V8c0,.24-.09.36-.29.36h-4.23a16.11,16.11,0,0,0,1.32,2.44,12.94,12.94,0,0,0,2.7,2.86.32.32,0,0,1,.21.27s-.07.12-.16.19a3.91,3.91,0,0,1-.7.72c-.1.15-.19.22-.24.22a.65.65,0,0,1-.41-.17,13.39,13.39,0,0,1-2.31-2.77,11.83,11.83,0,0,1-.68-1.18V21.62c0,.19-.14.29-.38.29h-.94c-.24,0-.36-.1-.36-.29v-10c-.1.19-.2.36-.29.5a23.89,23.89,0,0,1-1.76,2.65A18,18,0,0,1,344.07,17a.51.51,0,0,1-.43-.17c-.32-.29-.63-.55-.92-.82a.56.56,0,0,1-.07-.24,10.54,10.54,0,0,0,1.71-1.49,13.76,13.76,0,0,0,2-2.6c.41-.67,1-1.78,1.73-3.35H343c-.19,0-.28-.12-.28-.36V7.22c0-.24.09-.36.28-.36h5.28V3c-.32,0-.6.1-.85.12a21.89,21.89,0,0,1-3,.19c-.28,0-.45-.09-.5-.31a12.13,12.13,0,0,1-.72-1c0-.19.07-.28.26-.28h1.42a16.89,16.89,0,0,0,2.94-.2,9.81,9.81,0,0,0,2.24-.43,7,7,0,0,0,2.17-.92.45.45,0,0,1,.19-.07.71.71,0,0,1,.41.12c.91.82,1.37,1.3,1.37,1.5s-.1.28-.29.28l-.65-.28A1.18,1.18,0,0,0,352.91,1.76Zm5.63,1.51c0,.22-.07.34-.22.37s-.24.19-.24.48V16.25c0,.19-.14.29-.38.29h-.94c-.24,0-.36-.1-.36-.29v-13c0-.16.12-.26.36-.26C357.94,3,358.54,3.11,358.54,3.27ZM363.72.6c.19.1.28.19.28.24s-.12.24-.31.24c-.36.15-.53.58-.53,1.25v17.6c0,1.26-.89,1.88-2.65,1.88h-1.68c-.15,0-.19-.17-.19-.45a4.48,4.48,0,0,0-.46-1.16c0-.19.05-.27.19-.27a8.67,8.67,0,0,0,2,.27c.68,0,1-.29,1-.84V2.24a11.61,11.61,0,0,0-.05-1.18,1.91,1.91,0,0,1-.05-.51c0-.12.12-.19.37-.19Z"/><path class="cls-1" d="M387.52.84c.24,0,.39.1.39.27V21.62c0,.19-.15.29-.39.29h-.94c-.26,0-.38-.1-.38-.29v-.75H369.66v.75c0,.19-.15.29-.39.29h-.94c-.24,0-.36-.1-.36-.29V1.11c0-.17.12-.27.36-.27ZM386.2,19.36V2.24H369.66V19.36Zm-8.09-4.7a5.37,5.37,0,0,1-.07,1.23c-2,.55-4,1.06-6,1.49-.24.46-.41.68-.56.68s-.4-.63-.84-1.91c.92-.14,2.05-.36,3.37-.69s2.58-.65,3.76-1a.19.19,0,0,1,.12-.05C378,14.37,378.11,14.47,378.11,14.66Zm.82-9.58c0-.51-.05-1-.05-1.61,0-.2.05-.29.17-.29l1.49.12c.26,0,.41.07.41.17a.38.38,0,0,1-.19.38c-.15.07-.2.29-.2.65v.58h3.11c-.39-.34-.8-.63-1.18-.92a5.41,5.41,0,0,0-.89-.5,4.39,4.39,0,0,1,.65-1c.07-.09.14-.14.19-.14.48.29.89.53,1.2.74l1,.77s-.05.08-.12.17l-.65.87h1.61c.12,0,.19.1.19.26v.75c0,.27-.07.39-.19.39h-4.86c0,.91.05,1.68.09,2.31a18.5,18.5,0,0,0,.53,3.18c.1.43.22.84.32,1.18a14.09,14.09,0,0,0,.89-1.91,15.75,15.75,0,0,0,.82-2.67.22.22,0,0,1,.24-.22c1.25.44,1.87.73,1.87.85a.37.37,0,0,1-.28.38.43.43,0,0,0-.41.27,25.84,25.84,0,0,1-1.3,3.39A17.8,17.8,0,0,1,382.3,15a4.22,4.22,0,0,0,.74,1.15,1.19,1.19,0,0,0,.63.29c.1,0,.22-.14.38-.43a8.16,8.16,0,0,0,.56-1.44c.07,0,.17.07.26.21a3,3,0,0,0,.68.8.57.57,0,0,1,.29.5,11.41,11.41,0,0,1-.92,1.66c-.43.58-.82.87-1.15.87a1.11,1.11,0,0,1-.56-.12,3,3,0,0,1-1-.84,6.76,6.76,0,0,1-1-1.3,15.2,15.2,0,0,1-2.33,2,.82.82,0,0,1-.29.07.45.45,0,0,1-.44-.27,5.31,5.31,0,0,0-.6-.65.3.3,0,0,1-.19-.31c0-.05.05-.07.15-.12a5,5,0,0,0,1.22-.77,8.13,8.13,0,0,0,1.71-1.61,13.81,13.81,0,0,1-.62-1.88,27.62,27.62,0,0,1-.65-3.66c-.1-.72-.15-1.61-.2-2.67h-7.92c-.12,0-.17-.12-.17-.39V5.34c0-.16.05-.26.17-.26ZM377.36,8c.24,0,.39.1.39.27v4.81c0,.2-.15.27-.39.27h-5.63c-.27,0-.39-.07-.39-.27V8.26c0-.17.12-.27.39-.27Zm-1.23,1.4H373v2.55h3.18Z"/><path class="cls-1" d="M397.87.75a1.3,1.3,0,0,1,.77.16,1.4,1.4,0,0,1,.55.87L396.4,7.9a1.23,1.23,0,0,0,0,.26.3.3,0,0,0,.09.22,11.5,11.5,0,0,1,1.9,2.89,7.53,7.53,0,0,1,.53,2.65,5.63,5.63,0,0,1-.6,2.93,2.33,2.33,0,0,1-2.21,1.21c-.73,0-1.09-.15-1.11-.46a11.44,11.44,0,0,0-.31-1.16c0-.24,0-.36.09-.36l1.33.17a.82.82,0,0,0,.86-.65,8.64,8.64,0,0,0,.17-1.88,6.08,6.08,0,0,0-.6-2.38,9.63,9.63,0,0,0-2-2.77.28.28,0,0,1-.15-.22,1.67,1.67,0,0,1,.1-.36l2.72-5.85h-3.3V21.52c0,.2-.12.29-.36.29h-1c-.25,0-.37-.09-.37-.29V1c0-.19.12-.28.37-.28Zm5.46-.1c-.29.53-.53,1-.74,1.42h2.72a.64.64,0,0,1,.33.1,1.68,1.68,0,0,1,.41.65,21.62,21.62,0,0,1-.86,2.64,13,13,0,0,1-1,2,11,11,0,0,1-1.3,1.49A9.29,9.29,0,0,1,401,10.26a7.73,7.73,0,0,1-1.85.74c-.2,0-.32-.05-.39-.19s-.31-.48-.46-.72a.4.4,0,0,1-.09-.22.15.15,0,0,1,.09-.14,7.17,7.17,0,0,0,1.35-.46,6.79,6.79,0,0,0,1.45-.75c-.25-.24-.46-.45-.65-.65s-.63-.5-.82-.65a4,4,0,0,1,.65-.89.23.23,0,0,1,.19-.14c.43.33.77.65,1.06.91s.36.44.5.6a4.91,4.91,0,0,0,.87-1c-.24-.24-.46-.48-.67-.72l-.82-.68a4.39,4.39,0,0,1,.65-.89.23.23,0,0,1,.19-.14,13.88,13.88,0,0,1,1.06,1l.29.36A11,11,0,0,0,404,4.55c.12-.31.26-.7.41-1.18h-2.63a13.34,13.34,0,0,1-1,1.32,10.52,10.52,0,0,1-1.51,1.4c-.17,0-.29,0-.36-.12-.29-.26-.56-.53-.82-.77a.44.44,0,0,1-.05-.22,8.38,8.38,0,0,0,1.18-.91,10.09,10.09,0,0,0,1.4-1.59A26,26,0,0,0,402.11,0Zm.36,16c.13.15.2.25.2.34s-.07.12-.17.12a.75.75,0,0,0-.39.19,16.19,16.19,0,0,1-1.42,1.88,15.79,15.79,0,0,1-2.26,1.93.43.43,0,0,1-.39-.17l-.84-.67c-.12-.05-.17-.12-.17-.17a.19.19,0,0,1,.1-.15,3.93,3.93,0,0,0,1.06-.67A9.31,9.31,0,0,0,401,17.7a21.7,21.7,0,0,0,1.25-1.83c.05-.1.1-.17.14-.17Zm8.58-3.7c.19,0,.28.12.28.36v.77c0,.24-.09.36-.28.36h-5v5.66c0,1.18-1,1.78-2.91,1.78h-1.23c-.12,0-.17-.17-.17-.46a4.8,4.8,0,0,0-.38-1.25v-.07a10.87,10.87,0,0,0,1.68.17c.87,0,1.33-.29,1.33-.85v-5h-5.08c-.2,0-.29-.12-.29-.36v-.77c0-.24.09-.36.29-.36ZM409.62,9.2c.19,0,.29.14.29.38v.75c0,.26-.1.38-.29.38h-6.48c-.19,0-.29-.12-.29-.38V9.58c0-.24.1-.38.29-.38Zm-.85-4.82a6.14,6.14,0,0,0,.46.89,6.13,6.13,0,0,0,.68-.67,8.2,8.2,0,0,0,1-1.4c.12-.19.29-.43.48-.77h-2.55c-.19,0-.26-.1-.26-.29V1.4c0-.2.07-.29.26-.29h3.3a1.08,1.08,0,0,1,.41.09l.53.46a1.12,1.12,0,0,1,.09.41c-.24.53-.52,1.11-.84,1.73a12.88,12.88,0,0,1-1.2,1.83,8.56,8.56,0,0,1-1,1.06,10,10,0,0,0,1.23,1.38,8.83,8.83,0,0,0,1.47,1,6.84,6.84,0,0,0,.94.41c.09,0,.14.05.14.15a.46.46,0,0,1-.19.34c-.24.28-.46.53-.65.77a.47.47,0,0,1-.39.21,9,9,0,0,1-2.26-1.59A11.14,11.14,0,0,1,409,7.78a10.48,10.48,0,0,1-1.28-2.27,26.72,26.72,0,0,1-1.32-3.73c0-.14.38-.38,1.2-.67A25.18,25.18,0,0,0,408.77,4.38ZM412,17.91c.68.72,1.23,1.35,1.71,1.93a.78.78,0,0,0-.09.19c-.49.68-.73,1-.75,1a22.38,22.38,0,0,0-2.36-2.48,10.86,10.86,0,0,0-1.69-1.3,4.83,4.83,0,0,1,.75-1.06c.07-.1.14-.15.19-.15A24.2,24.2,0,0,1,412,17.91Z"/><path class="cls-1" d="M424.78,4c.19,0,.29.12.29.37v.74c0,.27-.1.39-.29.39H416.4c-.19,0-.29-.12-.29-.39V4.41c0-.25.1-.37.29-.37Zm-.65,10.24c.24,0,.36.09.36.29v7c0,.2-.12.29-.36.29h-1c-.24,0-.36-.09-.36-.29v-.84h-4.43v.94c0,.19-.12.29-.37.29h-.93c-.27,0-.39-.1-.39-.29v-7a.34.34,0,0,1,.39-.38Zm-.29-3.47c.19,0,.29.12.29.36v.77c0,.24-.1.36-.29.36h-6.5c-.19,0-.26-.12-.26-.36v-.77c0-.24.07-.36.26-.36Zm0-3.49c.19,0,.29.14.29.38v.75c0,.27-.1.39-.29.39h-6.4c-.2,0-.29-.12-.29-.39V7.7c0-.24.09-.38.29-.38Zm0-6.57c.19,0,.29.12.29.36v.77c0,.24-.1.36-.29.36h-6.31c-.19,0-.29-.12-.29-.36V1.11c0-.24.1-.36.29-.36Zm-1,18.41V15.79h-4.43v3.37Zm12.68-8.93a.56.56,0,0,1,.39.17,2.94,2.94,0,0,1,.46.77,23.7,23.7,0,0,1-1.26,3.42,17.24,17.24,0,0,1-1.44,2.53,12.58,12.58,0,0,1-.89,1A8.32,8.32,0,0,0,435,19.36a15.77,15.77,0,0,0,3.2,1c.15,0,.22.07.22.12a.44.44,0,0,1-.12.26,6.81,6.81,0,0,0-.85.85c-.12.14-.21.21-.26.21a1.85,1.85,0,0,1-.41-.14c-.63-.19-1.32-.44-2.07-.7a17.12,17.12,0,0,1-2.46-1.28,4.92,4.92,0,0,1-.69-.5,13.38,13.38,0,0,1-2.6,1.56,12.68,12.68,0,0,1-2.68,1,.44.44,0,0,1-.43-.22c-.19-.27-.39-.53-.55-.79-.1-.1-.15-.17-.15-.22a.16.16,0,0,1,.15-.17c.67-.17,1.34-.36,2-.6a11.21,11.21,0,0,0,3-1.61c-.05-.05-.1-.08-.1-.1A5.94,5.94,0,0,1,428.8,16a11.12,11.12,0,0,1-1.2-3v-.22a4.47,4.47,0,0,1,1.51-.28,8.27,8.27,0,0,0,.7,2.11,8,8,0,0,0,1.33,2.05,1.71,1.71,0,0,0,.36.41,11.41,11.41,0,0,0,1-1.11,11.21,11.21,0,0,0,1.3-2.43,13.31,13.31,0,0,0,.65-1.78h-8c-.19,0-.27-.12-.27-.39v-.74c0-.24.08-.39.27-.39ZM433.81.55c.24,0,.36.1.36.29V6.33c0,.19.05.34.19.39a1.3,1.3,0,0,0,.68.14h.84a.63.63,0,0,0,.67-.38A8,8,0,0,0,437,4.65c0-.1.07-.15.22-.15a1.68,1.68,0,0,1,.31.1,6.78,6.78,0,0,0,.77.29c.22.05.34.17.34.36a14.89,14.89,0,0,1-.75,2.67,1.31,1.31,0,0,1-1.32.63h-2.36a2.73,2.73,0,0,1-1.4-.29.81.81,0,0,1-.29-.7V1.88h-3V3.06a11.57,11.57,0,0,1-.34,2.81,4.2,4.2,0,0,1-1.16,2A8,8,0,0,1,426.46,9a.52.52,0,0,1-.43-.17l-.62-.77a.38.38,0,0,1-.17-.29,4.81,4.81,0,0,0,2.33-2.46A8.2,8.2,0,0,0,427.89,3V.84c0-.19.07-.29.26-.29Z"/><path class="cls-1" d="M450.82,4c.2,0,.29.12.29.37v.74c0,.27-.09.39-.29.39h-10c-.2,0-.27-.12-.27-.39V4.41c0-.25.07-.37.27-.37Zm-1.3,10.14c.25,0,.37.1.37.29v7.15c0,.19-.12.29-.37.29h-.93c-.27,0-.39-.1-.39-.29V20.49h-4.89v1.13c0,.19-.14.29-.38.29H442c-.24,0-.36-.1-.36-.29v-7c0-.25.12-.39.36-.39Zm-.09-3.56c.17,0,.26.14.26.38v.75c0,.24-.09.36-.26.36h-7.25c-.19,0-.29-.12-.29-.36V11c0-.24.1-.38.29-.38Zm0-3.3c.17,0,.26.14.26.38v.75c0,.27-.09.39-.26.39h-7.15c-.19,0-.29-.12-.29-.39V7.7c0-.24.1-.38.29-.38ZM449.24.75c.19,0,.28.12.28.36v.77c0,.24-.09.36-.28.36h-6.87c-.19,0-.28-.12-.28-.36V1.11c0-.24.09-.36.28-.36ZM448.2,19V15.7h-4.89V19Zm7.7-11.87V.55c0-.19.13-.29.39-.29,1.18,0,1.78.1,1.78.29s-.1.34-.24.36-.22.2-.22.49V7.13h4.7c.19,0,.29.14.29.38v.75c0,.26-.1.38-.29.38h-4.7v13c0,.19-.14.29-.38.29h-.94c-.26,0-.39-.1-.39-.29v-13h-4.5c-.19,0-.29-.12-.29-.38V7.51c0-.24.1-.38.29-.38Z"/><path class="cls-1" d="M471.36.6c.17.15.26.24.26.34a.25.25,0,0,1-.19.26.37.37,0,0,0-.41.27c-.14.38-.29.7-.39,1h5.2a3.25,3.25,0,0,0,.51-.62,9.58,9.58,0,0,0,.87-1.67.13.13,0,0,1,.14-.14,15.68,15.68,0,0,1,2,.94c0,.07-.1.12-.27.17a.71.71,0,0,0-.5.29c-.22.36-.46.69-.7,1h6.93c.19,0,.29.15.29.39v.74c0,.27-.1.39-.29.39h-7.05V5.54h6.5c.09,0,.17.09.17.29v.74c0,.27-.08.39-.17.39h-6.5V8.55h6.5c.09,0,.17.09.17.29v.74c0,.27-.08.39-.17.39h-6.5v1.49h7.44c.16,0,.26.14.26.39v.74c0,.27-.1.39-.26.39H470.39v.45c0,.2-.12.29-.36.29h-.94c-.26,0-.38-.09-.38-.29V5.75c-.15.2-.27.39-.41.56a11,11,0,0,1-1.57,1.49,1.09,1.09,0,0,1-.53-.1,8.92,8.92,0,0,1-.91-.33c-.1,0-.14-.1-.14-.15a.19.19,0,0,1,.09-.17,10.57,10.57,0,0,0,2.31-2.48,11.7,11.7,0,0,0,1-1.83,15.57,15.57,0,0,0,1-2.6c.05-.09.1-.14.19-.14Zm4,14v-.85c0-.19.12-.29.38-.29,1.18,0,1.78.1,1.78.29s-.09.34-.24.36-.21.2-.21.49h9.19c.2,0,.29.14.29.38v.75c0,.26-.09.38-.29.38h-8.09a16.2,16.2,0,0,0,2.46,1.59,18.27,18.27,0,0,0,3.61,1.61,17.74,17.74,0,0,0,3.54.92c0,.12-.1.22-.24.29a7.14,7.14,0,0,0-.94,1c-.1.12-.19.2-.24.2A25.39,25.39,0,0,1,482,20.08a15.46,15.46,0,0,1-3.27-2,10.91,10.91,0,0,1-1.66-1.35v5.15c0,.17-.15.26-.39.26h-.94c-.26,0-.38-.09-.38-.26V17.29c-.22.16-.41.31-.6.43a17.69,17.69,0,0,1-2.51,1.64A28.91,28.91,0,0,1,469,20.78a19.29,19.29,0,0,1-2.5.74c-.12,0-.21-.12-.31-.31s-.51-.58-.8-.89c-.14-.14-.21-.24-.21-.29A38,38,0,0,0,469.31,19a21.51,21.51,0,0,0,3.37-1.5,16.16,16.16,0,0,0,1.85-1.37h-8.35c-.19,0-.29-.12-.29-.38V15c0-.24.1-.38.29-.38ZM476.05,4h-5.66V5.54h5.66Zm0,4.6V7h-5.66V8.55Zm0,2.91V10h-5.66v1.49Z"/><path class="cls-1" d="M510.19.55c.24,0,.38.1.38.29V21.72c0,.19-.14.29-.38.29h-.94c-.27,0-.39-.1-.39-.29v-.65H492.42v.84c0,.17-.15.26-.39.26h-.94c-.24,0-.36-.09-.36-.26V.84c0-.19.12-.29.36-.29Zm-1.33,19.19V1.88H492.42V19.74Zm-9-15.89V2.72c0-.12.1-.19.29-.19,1.11,0,1.69.09,1.69.29s-.08.29-.17.31-.19.17-.19.43v.29h6.3c.1,0,.17.1.17.27v.57c0,.27-.07.39-.17.39h-6.3V6H506c.24,0,.38.1.38.26V11.1c0,.19-.14.26-.38.26h-.29a12.16,12.16,0,0,1,1.15,1.52,10.42,10.42,0,0,1,.85,1.49,4.53,4.53,0,0,1-1.33.39,5.46,5.46,0,0,0-.57-1.21l-1.11.08v1.59h3.18c.12,0,.19.09.19.28v.58c0,.24-.07.36-.19.36h-3.18v.94c0,1.16-.68,1.71-2,1.71h-1.42c-.09,0-.14-.14-.14-.43a4,4,0,0,0-.31-1.18v-.1a7.31,7.31,0,0,0,1.78.2c.29,0,.45-.27.45-.85v-.29h-5.32l.82.51c.39.31.75.58,1,.82a1.12,1.12,0,0,1-.12.17c-.44.57-.65.86-.65.86a15.42,15.42,0,0,0-1.42-1.06c-.41-.24-.75-.43-1-.55a3,3,0,0,1,.53-.75h-3.16c-.14,0-.19-.12-.19-.36V15.5c0-.19.05-.28.19-.28H503V13.7l-8.08.58c-.13.36-.25.55-.37.57a.2.2,0,0,1-.21-.12L493.91,13l5.92-.27V11.36h-4.4c-.27,0-.39-.07-.39-.26V6.28c0-.16.12-.26.39-.26h4.4V5.08h-6c-.12,0-.17-.12-.17-.39V4.12c0-.17.05-.27.17-.27Zm0,4.31v-1h-3.08v1Zm0,1h-3.08v1h3.08Zm1.62-1h3.2v-1h-3.2Zm3.2,1h-3.2v1h3.2Zm-.19,2.65c0-.08.21-.25.67-.49h-3.68v1.28c.81,0,1.68-.07,2.6-.12a9.61,9.61,0,0,0,1,0Z"/><line class="cls-2" x1="265.47" y1="1.41" x2="265.47" y2="37.69"/></svg>