<svg id="圖層_1" data-name="圖層 1" xmlns="http://www.w3.org/2000/svg" viewBox="0 0 566.47 58.59"><defs><style>.cls-1{fill:#c8161d;}.cls-2{fill:none;stroke:#4d4948;stroke-miterlimit:10;stroke-width:1.09px;}.cls-3{fill:#4d4948;}</style></defs><title>logo_olily_r</title><path class="cls-1" d="M321,190.39a1.49,1.49,0,0,1-.74.56,2.6,2.6,0,0,1-1,.26c-2.18,0-3.27-1.19-3.27-3.55a4,4,0,0,1,.88-2.66,2.84,2.84,0,0,1,2.29-1.05,2.11,2.11,0,0,1,1.84,1Zm1.75,2.11V178.63H321v4.55a3.46,3.46,0,0,0-2.34-.71,4.08,4.08,0,0,0-3.2,1.56,5.63,5.63,0,0,0-1.33,3.78,5.16,5.16,0,0,0,1.15,3.53,3.84,3.84,0,0,0,3,1.33,3.74,3.74,0,0,0,2.68-.9v.73Z" transform="translate(-137.71 -137.84)"/><path class="cls-1" d="M331.36,184.73a2.51,2.51,0,0,1,.67,1.77h-5.52a2.75,2.75,0,0,1,.87-1.79,2.8,2.8,0,0,1,2-.76A2.62,2.62,0,0,1,331.36,184.73Zm2.43,2a4.05,4.05,0,0,0-1.17-3,4.61,4.61,0,0,0-3.34-1.19,4.32,4.32,0,0,0-3.17,1.32,5.24,5.24,0,0,0-1.49,3.91,4.92,4.92,0,0,0,1.46,3.73,4.37,4.37,0,0,0,3.18,1.26,7,7,0,0,0,2.36-.38,3.57,3.57,0,0,0,1.26-.71l-.74-1.26a3.8,3.8,0,0,1-2.52.87,3.07,3.07,0,0,1-2.18-.8,3.55,3.55,0,0,1-.95-2.65h7.15A3.59,3.59,0,0,0,333.79,186.69Z" transform="translate(-137.71 -137.84)"/><path class="cls-1" d="M335,191.92l.62-1.67a4.72,4.72,0,0,0,2.36,1c1.09,0,1.63-.45,1.63-1.36,0-.65-.53-1.2-1.58-1.67a12.86,12.86,0,0,1-1.63-.84,3.26,3.26,0,0,1-.73-.64,2.17,2.17,0,0,1-.46-.78,2.3,2.3,0,0,1-.16-.88,2.26,2.26,0,0,1,.89-1.89,3.78,3.78,0,0,1,2.34-.68,7.81,7.81,0,0,1,2.74.67l-.5,1.62a3.52,3.52,0,0,0-2.11-.81,1.79,1.79,0,0,0-1.06.3.85.85,0,0,0-.43.74,1.54,1.54,0,0,0,1.08,1.43l1.26.57a4.21,4.21,0,0,1,1.68,1.2,2.6,2.6,0,0,1,.53,1.68,2.51,2.51,0,0,1-.93,2.07,4,4,0,0,1-2.6.75A6,6,0,0,1,335,191.92Z" transform="translate(-137.71 -137.84)"/><path class="cls-1" d="M345.18,178.94a1.06,1.06,0,0,1,.77.32,1,1,0,0,1,.32.76,1,1,0,0,1-.32.76,1.06,1.06,0,0,1-.77.32,1.09,1.09,0,0,1-.77-1.85A1,1,0,0,1,345.18,178.94Zm-1,13.56v-8.35h-1.35v-1.48H346v9.83Z" transform="translate(-137.71 -137.84)"/><path class="cls-1" d="M353.55,184.51a2.24,2.24,0,0,1,.57,1.56,2.59,2.59,0,0,1-.53,1.71,1.77,1.77,0,0,1-1.46.66,1.85,1.85,0,0,1-1.51-.68,2.52,2.52,0,0,1-.56-1.69,2.19,2.19,0,0,1,.57-1.56,1.93,1.93,0,0,1,1.5-.64A1.81,1.81,0,0,1,353.55,184.51ZM350.1,196a6.94,6.94,0,0,0,2,.33,5.52,5.52,0,0,0,3.13-.83,2.58,2.58,0,0,0,1.24-2.2,2.4,2.4,0,0,0-.84-1.93,3.44,3.44,0,0,0-2.29-.7,8.23,8.23,0,0,0-1.25.16,8,8,0,0,1-1.25.15c-.61,0-.91-.13-.91-.38s.15-.35.43-.46a2.56,2.56,0,0,1,.7-.21l1.46-.15a3.72,3.72,0,0,0,2.46-1.16,3.43,3.43,0,0,0,.94-2.49,3.62,3.62,0,0,0-.68-2.28l1.05-.78L355.18,182l-.88,1a3.9,3.9,0,0,0-2.29-.59,3.76,3.76,0,0,0-2.68,1,3.38,3.38,0,0,0-1.09,2.57,3.43,3.43,0,0,0,2.1,3.38,3,3,0,0,0-1.23.57,1.14,1.14,0,0,0-.49.89c0,1.06.7,1.6,2.11,1.6a7,7,0,0,0,1.22-.15,6.09,6.09,0,0,1,1.08-.16q1.74,0,1.74,1.2a1.17,1.17,0,0,1-.69,1,3.64,3.64,0,0,1-1.9.42,5.27,5.27,0,0,1-2.84-1l-.95,1.4A5.8,5.8,0,0,0,350.1,196Z" transform="translate(-137.71 -137.84)"/><path class="cls-1" d="M364.4,192.5v-5.72a3.75,3.75,0,0,0-.48-2.2,1.88,1.88,0,0,0-1.6-.63,2.72,2.72,0,0,0-1.26.36,2.84,2.84,0,0,0-1,.88v7.31h-1.76v-9.83h1.21l.55,1.27a3,3,0,0,1,2.84-1.47c2.18,0,3.26,1.31,3.26,3.93v6.1Z" transform="translate(-137.71 -137.84)"/><path class="cls-1" d="M201.36,192.51v-8.37H200v-1.47h3.13v9.84Zm1-13.56a1.08,1.08,0,0,1,1.1,1.07,1.06,1.06,0,0,1-.32.77,1.08,1.08,0,0,1-.78.32,1.05,1.05,0,0,1-.76-.32,1.09,1.09,0,0,1,0-1.53A1,1,0,0,1,202.32,179Z" transform="translate(-137.71 -137.84)"/><path class="cls-1" d="M212,192.51v-5.72a3.75,3.75,0,0,0-.48-2.2A1.88,1.88,0,0,0,210,184a2.73,2.73,0,0,0-1.26.35,2.76,2.76,0,0,0-1,.89v7.31h-1.77v-9.84h1.21l.56,1.27a3.06,3.06,0,0,1,2.85-1.45q3.26,0,3.26,3.93v6.09Z" transform="translate(-137.71 -137.84)"/><path class="cls-1" d="M216.94,184.05h-1.15v-1.38h1.15v-2.06l1.76-.67v2.73h2.73v1.38H218.7v4.89a2.79,2.79,0,0,0,.43,1.76,1.63,1.63,0,0,0,1.35.53,3.42,3.42,0,0,0,1.41-.34l.26,1.53a10.09,10.09,0,0,1-2.41.28,2.62,2.62,0,0,1-2-.87,3.09,3.09,0,0,1-.81-2.19Z" transform="translate(-137.71 -137.84)"/><path class="cls-1" d="M232.22,187.76h-7.17a3.54,3.54,0,0,0,1,2.66,3,3,0,0,0,2.17.81,3.67,3.67,0,0,0,2.52-.88l.75,1.26a3.42,3.42,0,0,1-1.26.7,6.74,6.74,0,0,1-2.35.39,4.43,4.43,0,0,1-3.19-1.26,4.92,4.92,0,0,1-1.45-3.73,5.21,5.21,0,0,1,1.49-3.91,4.34,4.34,0,0,1,3.16-1.31,4.57,4.57,0,0,1,3.34,1.18,4,4,0,0,1,1.17,3A4,4,0,0,1,232.22,187.76Zm-4.28-3.8a2.77,2.77,0,0,0-2,.75,2.72,2.72,0,0,0-.86,1.78h5.5a2.45,2.45,0,0,0-.67-1.76A2.59,2.59,0,0,0,227.94,184Z" transform="translate(-137.71 -137.84)"/><path class="cls-1" d="M239.61,184.35a2,2,0,0,0-1.16-.39,2.08,2.08,0,0,0-1.64.85,3.19,3.19,0,0,0-.7,2.06v5.64h-1.76v-9.84h1.76v1.57a3.1,3.1,0,0,1,2.87-1.75,8.07,8.07,0,0,1,1.37.16Z" transform="translate(-137.71 -137.84)"/><path class="cls-1" d="M247.72,192.51v-5.72a3.75,3.75,0,0,0-.48-2.2,1.88,1.88,0,0,0-1.6-.63,2.74,2.74,0,0,0-1.27.35,2.94,2.94,0,0,0-1,.89v7.31H241.6v-9.84h1.21l.55,1.27a3.06,3.06,0,0,1,2.85-1.45q3.27,0,3.27,3.93v6.09Z" transform="translate(-137.71 -137.84)"/><path class="cls-1" d="M257.6,191.38a3.91,3.91,0,0,1-3.24,1.32,2.9,2.9,0,0,1-2.89-2.94,3.13,3.13,0,0,1,1.33-2.53,5.29,5.29,0,0,1,3.37-1,4,4,0,0,1,1.26.24c0-1.6-.71-2.39-2.15-2.39a3.44,3.44,0,0,0-2.54.88l-.75-1.46a4.61,4.61,0,0,1,1.39-.7,5.54,5.54,0,0,1,1.7-.28,4.33,4.33,0,0,1,3.14,1,4.24,4.24,0,0,1,1,3.1v3.53a1.78,1.78,0,0,0,.78,1.72v.88a3.23,3.23,0,0,1-1.61-.31A1.66,1.66,0,0,1,257.6,191.38Zm-.17-3.7a6.67,6.67,0,0,0-1.17-.19,3.4,3.4,0,0,0-2.18.68,2,2,0,0,0-.84,1.61c0,1,.61,1.54,1.83,1.54a3,3,0,0,0,2.36-1.26Z" transform="translate(-137.71 -137.84)"/><path class="cls-1" d="M262.6,184.05h-1.15v-1.38h1.15v-2.06l1.77-.67v2.73h2.72v1.38h-2.72v4.89a2.86,2.86,0,0,0,.42,1.76,1.64,1.64,0,0,0,1.36.53,3.38,3.38,0,0,0,1.4-.34l.26,1.53a10,10,0,0,1-2.4.28,2.64,2.64,0,0,1-2-.87,3.09,3.09,0,0,1-.81-2.19Z" transform="translate(-137.71 -137.84)"/><path class="cls-1" d="M270.36,192.51v-8.37H269v-1.47h3.12v9.84Zm1-13.56a1,1,0,0,1,.77.31,1.07,1.07,0,0,1,0,1.53,1.09,1.09,0,0,1-1.86-.77,1.08,1.08,0,0,1,1.09-1.07Z" transform="translate(-137.71 -137.84)"/><path class="cls-1" d="M274.28,187.57a5.32,5.32,0,0,1,1.24-3.68,4.62,4.62,0,0,1,6.57-.06,6.47,6.47,0,0,1,0,7.49,4.61,4.61,0,0,1-6.59,0A5.52,5.52,0,0,1,274.28,187.57Zm1.85,0c0,2.47.89,3.7,2.65,3.7a2.23,2.23,0,0,0,1.93-1,4.61,4.61,0,0,0,.7-2.71c0-2.44-.87-3.66-2.63-3.66a2.27,2.27,0,0,0-1.93,1A4.45,4.45,0,0,0,276.13,187.57Z" transform="translate(-137.71 -137.84)"/><path class="cls-1" d="M291.24,192.51v-5.72a3.84,3.84,0,0,0-.47-2.2,1.9,1.9,0,0,0-1.61-.63,2.73,2.73,0,0,0-1.26.35,2.85,2.85,0,0,0-1,.89v7.31h-1.76v-9.84h1.2l.56,1.27a3.06,3.06,0,0,1,2.85-1.45q3.27,0,3.27,3.93v6.09Z" transform="translate(-137.71 -137.84)"/><path class="cls-1" d="M301.13,191.38a3.91,3.91,0,0,1-3.24,1.32,2.8,2.8,0,0,1-2-.84,2.84,2.84,0,0,1-.86-2.1,3.12,3.12,0,0,1,1.32-2.53,5.34,5.34,0,0,1,3.38-1,4,4,0,0,1,1.26.24c0-1.6-.72-2.39-2.15-2.39a3.48,3.48,0,0,0-2.55.88l-.74-1.46a4.61,4.61,0,0,1,1.39-.7,5.48,5.48,0,0,1,1.69-.28,4.31,4.31,0,0,1,3.14,1,4.19,4.19,0,0,1,1,3.1v3.53a1.78,1.78,0,0,0,.78,1.72v.88a3.28,3.28,0,0,1-1.61-.31A1.69,1.69,0,0,1,301.13,191.38Zm-.17-3.7a7,7,0,0,0-1.17-.19,3.38,3.38,0,0,0-2.18.68,2,2,0,0,0-.84,1.61c0,1,.61,1.54,1.82,1.54a3,3,0,0,0,2.37-1.26Z" transform="translate(-137.71 -137.84)"/><path class="cls-1" d="M305.64,189.73v-11.1h1.76v10.8a1.7,1.7,0,0,0,.46,1.25,1.65,1.65,0,0,0,1.2.45v1.57Q305.64,192.7,305.64,189.73Z" transform="translate(-137.71 -137.84)"/><path class="cls-1" d="M373.72,195.21l1-1.4a5.22,5.22,0,0,0,2.84,1,3.72,3.72,0,0,0,1.88-.41,1.19,1.19,0,0,0,.7-1c0-.79-.59-1.19-1.75-1.19a6.84,6.84,0,0,0-1.08.15,7.7,7.7,0,0,1-1.21.14c-1.41,0-2.12-.52-2.12-1.58a1.13,1.13,0,0,1,.5-.88,3.18,3.18,0,0,1,1.23-.57,3.44,3.44,0,0,1-2.1-3.38,3.4,3.4,0,0,1,1.09-2.58,3.75,3.75,0,0,1,2.68-1,3.83,3.83,0,0,1,2.29.59l.88-1.05,1.15,1.08-1.05.79a3.61,3.61,0,0,1,.67,2.28,3.55,3.55,0,0,1-.93,2.5,3.76,3.76,0,0,1-2.46,1.16l-1.46.14a3.24,3.24,0,0,0-.7.2c-.29.12-.43.26-.43.45s.3.38.91.38a8,8,0,0,0,1.24-.15,9,9,0,0,1,1.25-.14,3.46,3.46,0,0,1,2.29.69,2.4,2.4,0,0,1,.82,1.93,2.55,2.55,0,0,1-1.23,2.2,5.45,5.45,0,0,1-3.11.83,6.59,6.59,0,0,1-2-.34A5.63,5.63,0,0,1,373.72,195.21Zm3.74-11.32a2,2,0,0,0-1.5.64,2.24,2.24,0,0,0-.58,1.57,2.6,2.6,0,0,0,.56,1.7,1.88,1.88,0,0,0,1.52.68,1.8,1.8,0,0,0,1.47-.66,2.68,2.68,0,0,0,.53-1.72,2.29,2.29,0,0,0-.58-1.57A1.84,1.84,0,0,0,377.46,183.89Z" transform="translate(-137.71 -137.84)"/><path class="cls-1" d="M389,184.35a2,2,0,0,0-2.79.46,3.14,3.14,0,0,0-.71,2.06v5.64h-1.76v-9.84h1.76v1.57a3.1,3.1,0,0,1,2.87-1.75,8.07,8.07,0,0,1,1.37.16Z" transform="translate(-137.71 -137.84)"/><path class="cls-1" d="M390.36,187.57a5.32,5.32,0,0,1,1.24-3.68,4.12,4.12,0,0,1,3.26-1.4,4.18,4.18,0,0,1,3.32,1.34,6.51,6.51,0,0,1,0,7.49,4.62,4.62,0,0,1-6.6,0A5.57,5.57,0,0,1,390.36,187.57Zm1.86,0q0,3.7,2.64,3.7a2.26,2.26,0,0,0,1.94-1,4.69,4.69,0,0,0,.7-2.71q0-3.66-2.64-3.66a2.26,2.26,0,0,0-1.92,1A4.45,4.45,0,0,0,392.22,187.57Z" transform="translate(-137.71 -137.84)"/><path class="cls-1" d="M402.88,182.67V189c0,1.52.67,2.28,2,2.28a2.75,2.75,0,0,0,1.59-.5,2.42,2.42,0,0,0,1-1.15v-6.91h1.76v9.84h-1.76v-1.36a2.74,2.74,0,0,1-1.19,1.06,3.6,3.6,0,0,1-1.75.49,3.28,3.28,0,0,1-2.51-.93,3.76,3.76,0,0,1-.86-2.64v-6.46Z" transform="translate(-137.71 -137.84)"/><path class="cls-1" d="M413.36,192v4.4H411.6v-13.7h1.76v.81a3.31,3.31,0,0,1,2.42-1,4.23,4.23,0,0,1,3.3,1.3,6.55,6.55,0,0,1,0,7.49,4.26,4.26,0,0,1-3.44,1.42,4.87,4.87,0,0,1-1.35-.22A1.77,1.77,0,0,1,413.36,192Zm0-7.18v5.74a1.65,1.65,0,0,0,.7.47,2.73,2.73,0,0,0,1.05.23q3.28,0,3.29-3.68a4,4,0,0,0-.78-2.73,3.2,3.2,0,0,0-2.5-.86,2.2,2.2,0,0,0-.91.25A3,3,0,0,0,413.36,184.79Z" transform="translate(-137.71 -137.84)"/><path class="cls-1" d="M183.27,159.23c0,1.87-3.73,2.77-11.19,2.77H159.26c-7.53,0-11.26-.9-11.26-2.77V146.36c0-2,3.73-2.92,11.26-2.92h12.82c7.46,0,11.19,1,11.19,2.92Zm10.29.1V146.22c0-3.5-2.46-5.84-7.31-7.14-3.21-.85-8-1.24-14.39-1.24h-12.6c-14.39,0-21.55,2.78-21.55,8.38v13.15c0,3.12,2.54,5.41,7.61,6.8a54.09,54.09,0,0,0,13.94,1.53h12.6C186.32,167.7,193.56,164.88,193.56,159.33Z" transform="translate(-137.71 -137.84)"/><path class="cls-1" d="M221.84,167.7a68.74,68.74,0,0,1-14.43-1.17c-5.17-1.26-7.72-3.51-7.72-6.87V138.38h10.06v21.28c0,1.17,1.67,1.92,5.17,2.29,1.46.14,3.93.19,7.28.19h24.92v5.56Z" transform="translate(-137.71 -137.84)"/><path class="cls-1" d="M253.46,167.84v-29.5h10.06v29.5Z" transform="translate(-137.71 -137.84)"/><path class="cls-1" d="M292.07,167.7a68.74,68.74,0,0,1-14.43-1.17c-5.17-1.26-7.72-3.51-7.72-6.87V138.38H280v21.28c0,1.17,1.67,1.92,5.18,2.29,1.45.14,3.93.19,7.28.19h24.92v5.56Z" transform="translate(-137.71 -137.84)"/><path class="cls-1" d="M337.35,155.68v12.16h-10V155.68l-28.56-17.49h13.63l19.88,12.21,20-12.21h13.26Z" transform="translate(-137.71 -137.84)"/><line class="cls-2" x1="310.22" y1="55.54" x2="310.22" y2="1.4"/><path class="cls-3" d="M477.93,159.32h10.79c.13,0,.2.1.2.28v.81c0,.25-.07.38-.2.38H477.93v1.29c0,.2-.13.31-.38.31h-1a.27.27,0,0,1-.3-.31V140.6c0-.18.1-.28.3-.28H489c.13,0,.21.1.21.28v.81c0,.26-.08.38-.21.38H477.93Zm5.35-7.93c.25,0,.4.1.4.31v5.82c0,.2-.15.31-.4.31h-.79c-.28,0-.41-.11-.41-.31v-.58h-1.67v.58c0,.2-.15.31-.4.31h-.79c-.28,0-.4-.11-.4-.31V151.7c0-.21.12-.31.4-.31Zm-1.2,4.16v-2.76h-1.67v2.76Zm5.35-12.16c.25,0,.4.1.4.3v6c0,.2-.15.3-.4.3h-1c-.2,0-.28-.1-.28-.3v-.61h-4v.51c0,.2-.13.3-.38.3h-1c-.21,0-.31-.1-.31-.3v-5.93c0-.2.1-.3.31-.3Zm-1.27,4.25v-2.78h-4v2.78Zm3,3.75c.17,0,.27.08.27.21v6c0,.16-.1.21-.27.21h-.81c-.21,0-.28-.05-.28-.21v-.68h-1.8v.68c0,.16-.1.21-.28.21h-.81c-.2,0-.28-.05-.28-.21V151.7c0-.21.08-.31.28-.31ZM488,155.55v-2.76h-1.8v2.76Zm7-9c0,.18-.07.28-.2.31a.73.73,0,0,0-.28.68v4a14.08,14.08,0,0,0,.2,1.78,25.67,25.67,0,0,0,.71,2.91,12.46,12.46,0,0,0,1.17,2.51,13.4,13.4,0,0,0,2.08,2.61c0,.1-.08.17-.21.25s-.58.41-.91.66a.55.55,0,0,1-.38.18,15.47,15.47,0,0,1-1.47-1.93,13.06,13.06,0,0,1-1.82-4,11.59,11.59,0,0,1-.43,1.19,10.3,10.3,0,0,1-1.57,2.64,13,13,0,0,1-2.33,2.13c-.1,0-.18-.08-.26-.21a4.49,4.49,0,0,0-.73-.66c-.15-.1-.2-.17-.2-.22a11.54,11.54,0,0,0,2.3-2.13,8,8,0,0,0,1.19-2,13.3,13.3,0,0,0,.76-2.94,23.94,23.94,0,0,0,.2-3.09v-4.56c0-.2,0-.3.11-.3A11.59,11.59,0,0,1,495.05,146.55ZM492.72,140c.15.13.26.23.26.3a.25.25,0,0,1-.21.28c-.15,0-.22.13-.22.36-.21,1.06-.36,1.95-.49,2.63h6a.92.92,0,0,1,.48.1c.33.26.5.46.5.59l-2.2,5.47c-.05.12-.1.17-.15.17-.94-.25-1.39-.5-1.39-.71l1.74-4.15h-5.32c-.2.84-.43,1.62-.68,2.36s-.58,1.39-.89,2a1.37,1.37,0,0,1-.5-.08c-.31-.13-.61-.25-.92-.35-.12-.05-.17-.11-.17-.16a.29.29,0,0,1,.07-.22,17,17,0,0,0,1.32-3.25c.23-.73.43-1.52.61-2.35s.38-2,.56-3.37c0-.13.07-.2.12-.2Z" transform="translate(-137.71 -137.84)"/><path class="cls-3" d="M520.2,147.77c.18.1.28.18.28.25a.32.32,0,0,1-.28.36c-.33.05-.53.15-.61.33-.53,1.87-1.24,4-2.15,6.43-.61,1.62-1.22,3.17-1.85,4.66h8.46c.2,0,.3.1.3.31v1c0,.26-.1.41-.3.41h-22c-.2,0-.31-.15-.31-.41v-1a.28.28,0,0,1,.31-.31h11.62c.76-1.8,1.52-3.7,2.31-5.67a52.4,52.4,0,0,0,1.8-6.71c.07-.18.15-.28.2-.28ZM514.45,140c0,.23-.1.35-.25.38s-.23.2-.23.51v2.58h9c.2,0,.3.13.3.38v.81c0,.25-.1.38-.3.38H503.08c-.21,0-.31-.13-.31-.38v-.81c0-.25.1-.38.31-.38h9V140c0-.2.12-.3.4-.3Q514.45,139.72,514.45,140Zm-5.07,12.87a39.65,39.65,0,0,1,1.32,4.63c0,.1-.61.31-1.8.61a23.91,23.91,0,0,0-1-4,38.08,38.08,0,0,0-2.1-5.55c0-.1.48-.4,1.49-.89A51.64,51.64,0,0,1,509.38,152.89Z" transform="translate(-137.71 -137.84)"/><path class="cls-3" d="M538.3,141.29a19.41,19.41,0,0,1-2.5.81c-.21.05-.41.1-.56.12v4.44H540c.2,0,.3.12.3.38v.81c0,.25-.1.38-.3.38h-4.46a16.9,16.9,0,0,0,1.39,2.55,13.8,13.8,0,0,0,2.84,3,.34.34,0,0,1,.23.28s-.08.12-.18.2a4,4,0,0,1-.74.76c-.1.15-.2.23-.25.23a.66.66,0,0,1-.43-.18,13.87,13.87,0,0,1-2.43-2.91,13.05,13.05,0,0,1-.71-1.24v11.24c0,.21-.15.31-.41.31h-1c-.26,0-.38-.1-.38-.31V151.67c-.11.2-.21.38-.31.53a24.1,24.1,0,0,1-1.85,2.79,17.78,17.78,0,0,1-2.3,2.35.57.57,0,0,1-.46-.17c-.33-.31-.66-.58-1-.86a.73.73,0,0,1-.08-.26,10.81,10.81,0,0,0,1.8-1.57,14.41,14.41,0,0,0,2.13-2.73c.43-.71,1-1.88,1.82-3.52h-5.34c-.2,0-.3-.13-.3-.38V147c0-.26.1-.38.3-.38h5.55v-4.11l-.89.13a24.49,24.49,0,0,1-3.17.2c-.3,0-.48-.1-.53-.33-.25-.3-.5-.66-.76-1,0-.2.08-.3.28-.3h1.5A18.48,18.48,0,0,0,533,141a10.35,10.35,0,0,0,2.36-.46,7.49,7.49,0,0,0,2.28-1,.43.43,0,0,1,.2-.08.69.69,0,0,1,.43.13c1,.86,1.45,1.37,1.45,1.57s-.1.3-.31.3l-.68-.3A1.53,1.53,0,0,0,538.3,141.29Zm5.93,1.59c0,.23-.07.36-.23.38s-.25.2-.25.51v12.76c0,.21-.15.31-.4.31h-1c-.26,0-.38-.1-.38-.31V142.88c0-.18.12-.28.38-.28C543.6,142.6,544.23,142.7,544.23,142.88Zm5.45-2.81c.2.1.3.2.3.25s-.12.26-.33.26c-.38.15-.55.6-.55,1.31v18.52c0,1.32-.94,2-2.79,2h-1.77c-.16,0-.21-.18-.21-.49a4,4,0,0,0-.48-1.21c0-.2,0-.28.2-.28a9.12,9.12,0,0,0,2.08.28c.71,0,1.09-.31,1.09-.89v-18c0-.53,0-.93-.05-1.24a2.09,2.09,0,0,1,0-.53c0-.13.13-.2.38-.2Z" transform="translate(-137.71 -137.84)"/><path class="cls-3" d="M574.72,140.32c.26,0,.41.1.41.28v21.58c0,.21-.15.31-.41.31h-1c-.27,0-.4-.1-.4-.31v-.78h-17.4v.78c0,.21-.15.31-.41.31h-1c-.25,0-.38-.1-.38-.31V140.6c0-.18.13-.28.38-.28Zm-1.39,19.48v-18h-17.4v18Zm-8.51-4.94a4.9,4.9,0,0,1-.08,1.29c-2.07.59-4.15,1.12-6.25,1.57-.26.49-.43.71-.59.71s-.43-.65-.88-2c1-.15,2.15-.38,3.54-.73s2.71-.69,4-1.09a.19.19,0,0,1,.13-.05C564.74,154.56,564.82,154.66,564.82,154.86Zm.86-10.08c0-.53,0-1.09,0-1.7,0-.2,0-.3.18-.3l1.57.13c.28,0,.43.07.43.17a.42.42,0,0,1-.2.41c-.16.08-.21.3-.21.68v.61h3.27c-.41-.35-.84-.66-1.24-1a5.72,5.72,0,0,0-.94-.53,4.77,4.77,0,0,1,.69-1,.3.3,0,0,1,.2-.15c.5.3.94.55,1.26.78l1,.81s0,.08-.13.18l-.68.91h1.69c.13,0,.21.1.21.28v.79c0,.27-.08.4-.21.4h-5.11c0,1,.05,1.77.1,2.43a18.28,18.28,0,0,0,.56,3.35c.1.45.22.88.33,1.24a14.23,14.23,0,0,0,.93-2,14.75,14.75,0,0,0,.86-2.82.24.24,0,0,1,.26-.22c1.31.45,2,.76,2,.88a.41.41,0,0,1-.3.41.47.47,0,0,0-.43.28,27.17,27.17,0,0,1-1.37,3.57,17.74,17.74,0,0,1-1.11,1.85,4.67,4.67,0,0,0,.78,1.21,1.28,1.28,0,0,0,.66.31c.1,0,.23-.15.4-.46a8.46,8.46,0,0,0,.59-1.52c.07,0,.17.08.28.23a3.06,3.06,0,0,0,.71.84.58.58,0,0,1,.3.53,12.47,12.47,0,0,1-1,1.74c-.46.61-.86.92-1.22.92a1.22,1.22,0,0,1-.58-.13,3.24,3.24,0,0,1-1.09-.89,6.67,6.67,0,0,1-1-1.36,15.81,15.81,0,0,1-2.46,2.1.67.67,0,0,1-.31.07.45.45,0,0,1-.45-.27,5.28,5.28,0,0,0-.63-.69.31.31,0,0,1-.21-.33c0-.05.05-.07.16-.12a5.39,5.39,0,0,0,1.29-.81,9,9,0,0,0,1.8-1.7,12.42,12.42,0,0,1-.66-2,28.29,28.29,0,0,1-.69-3.85c-.1-.76-.15-1.69-.2-2.81H557.4c-.13,0-.18-.13-.18-.4v-.79c0-.18,0-.28.18-.28ZM564,147.85c.26,0,.41.1.41.28v5.06c0,.2-.15.28-.41.28h-5.92c-.28,0-.41-.08-.41-.28v-5.06c0-.18.13-.28.41-.28Zm-1.29,1.47H559.4V152h3.34Z" transform="translate(-137.71 -137.84)"/><path class="cls-3" d="M585.61,140.22a1.29,1.29,0,0,1,.81.18,1.45,1.45,0,0,1,.58.91l-2.94,6.44a1.37,1.37,0,0,0,0,.27.28.28,0,0,0,.1.23,12.33,12.33,0,0,1,2,3,8.15,8.15,0,0,1,.56,2.79,5.94,5.94,0,0,1-.64,3.09,2.45,2.45,0,0,1-2.33,1.26c-.76,0-1.14-.15-1.16-.48s-.18-.76-.33-1.21c0-.26,0-.38.1-.38l1.39.17a.86.86,0,0,0,.92-.68,9.58,9.58,0,0,0,.17-2,6.34,6.34,0,0,0-.63-2.5,10.16,10.16,0,0,0-2.08-2.92.3.3,0,0,1-.15-.22,1.58,1.58,0,0,1,.1-.38l2.86-6.16h-3.47v20.39c0,.2-.12.31-.38.31h-1c-.25,0-.38-.11-.38-.31V140.53c0-.21.13-.31.38-.31Zm5.75-.1c-.31.56-.56,1.06-.79,1.5h2.87a.72.72,0,0,1,.35.1,1.88,1.88,0,0,1,.43.68,22.34,22.34,0,0,1-.91,2.79,12.77,12.77,0,0,1-1.07,2.05,11.38,11.38,0,0,1-1.36,1.57,9.5,9.5,0,0,1-2,1.42,8.67,8.67,0,0,1-2,.78.4.4,0,0,1-.41-.2c-.15-.25-.32-.51-.48-.76a.46.46,0,0,1-.1-.23.19.19,0,0,1,.1-.15,7.2,7.2,0,0,0,1.42-.48,7,7,0,0,0,1.52-.79l-.68-.68c-.36-.3-.66-.53-.86-.68a4,4,0,0,1,.68-.94.24.24,0,0,1,.2-.15c.46.35.81.68,1.12,1s.38.46.53.63a5.74,5.74,0,0,0,.91-1c-.25-.25-.48-.51-.71-.76s-.66-.56-.86-.71a4.45,4.45,0,0,1,.68-.94.25.25,0,0,1,.21-.15c.45.38.81.71,1.11,1l.31.38c.17-.35.32-.73.48-1.14s.28-.73.43-1.24h-2.76c-.36.51-.69,1-1,1.4a12.25,12.25,0,0,1-1.6,1.47.45.45,0,0,1-.38-.13c-.3-.28-.58-.56-.86-.81a.47.47,0,0,1-.05-.23,9.44,9.44,0,0,0,1.24-1,10.22,10.22,0,0,0,1.47-1.67,26.91,26.91,0,0,0,1.55-2.61Zm.38,16.87c.12.15.2.25.2.35s-.08.13-.18.13a.65.65,0,0,0-.4.2,13,13,0,0,1-3.88,4,.44.44,0,0,1-.4-.18l-.89-.71c-.13,0-.18-.13-.18-.18a.19.19,0,0,1,.1-.15,3.84,3.84,0,0,0,1.12-.71,9.59,9.59,0,0,0,1.67-1.7,17.81,17.81,0,0,0,1.32-1.92c0-.1.1-.18.15-.18Zm9-3.9c.2,0,.3.13.3.38v.81c0,.25-.1.38-.3.38h-5.25v6c0,1.24-1,1.88-3.06,1.88h-1.3c-.12,0-.17-.18-.17-.48a4.66,4.66,0,0,0-.41-1.32v-.08a11,11,0,0,0,1.78.18c.91,0,1.39-.3,1.39-.89v-5.24h-5.35c-.2,0-.3-.13-.3-.38v-.81c0-.25.1-.38.3-.38Zm-2.79-4c.2,0,.3.15.3.41v.78c0,.28-.1.41-.3.41h-6.82c-.2,0-.3-.13-.3-.41v-.78c0-.26.1-.41.3-.41Zm-.89-5.06a6.7,6.7,0,0,0,.48.93,5.86,5.86,0,0,0,.71-.7,8,8,0,0,0,1.09-1.47c.13-.21.31-.46.51-.81h-2.69c-.2,0-.28-.11-.28-.31v-.78c0-.21.08-.31.28-.31h3.47a1,1,0,0,1,.43.1l.56.48a1.23,1.23,0,0,1,.1.44c-.25.55-.55,1.16-.88,1.82a13.6,13.6,0,0,1-1.27,1.92,9.53,9.53,0,0,1-1,1.12,11,11,0,0,0,1.29,1.44,10,10,0,0,0,1.55,1.12,10.6,10.6,0,0,0,1,.43.13.13,0,0,1,.15.15.48.48,0,0,1-.2.35c-.26.31-.49.56-.69.81a.46.46,0,0,1-.4.23,9.15,9.15,0,0,1-2.38-1.67,12.34,12.34,0,0,1-1.5-1.72,10.83,10.83,0,0,1-1.34-2.38,27.41,27.41,0,0,1-1.39-3.93c0-.15.4-.4,1.26-.71A25.91,25.91,0,0,0,597.08,144.05Zm3.35,14.23c.71.76,1.29,1.42,1.79,2a1,1,0,0,0-.1.2c-.5.71-.76,1.09-.78,1.09a25.77,25.77,0,0,0-2.48-2.61,13.24,13.24,0,0,0-1.78-1.37,5.62,5.62,0,0,1,.79-1.11.3.3,0,0,1,.2-.15A25.53,25.53,0,0,1,600.43,158.28Z" transform="translate(-137.71 -137.84)"/><path class="cls-3" d="M613.92,143.69c.2,0,.31.13.31.38v.79c0,.28-.11.4-.31.4h-8.81c-.21,0-.31-.12-.31-.4v-.79c0-.25.1-.38.31-.38Zm-.68,10.77c.25,0,.38.1.38.3v7.32c0,.2-.13.31-.38.31h-1c-.25,0-.38-.11-.38-.31v-.89h-4.66v1c0,.21-.12.31-.38.31h-1c-.28,0-.41-.1-.41-.31v-7.32a.36.36,0,0,1,.41-.4Zm-.31-3.65c.21,0,.31.13.31.38V152c0,.25-.1.38-.31.38h-6.84c-.2,0-.27-.13-.27-.38v-.81c0-.25.07-.38.27-.38Zm0-3.67c.21,0,.31.15.31.4v.79c0,.28-.1.4-.31.4H606.2c-.21,0-.31-.12-.31-.4v-.79c0-.25.1-.4.31-.4Zm0-6.92c.21,0,.31.13.31.38v.81c0,.26-.1.38-.31.38H606.3c-.21,0-.31-.12-.31-.38v-.81c0-.25.1-.38.31-.38Zm-1.09,19.38v-3.55h-4.66v3.55Zm13.35-9.4a.6.6,0,0,1,.41.18,3.44,3.44,0,0,1,.48.81,24.53,24.53,0,0,1-1.32,3.6,17.1,17.1,0,0,1-1.52,2.66,13.81,13.81,0,0,1-.93,1.06,8.31,8.31,0,0,0,2.35,1.29,16.18,16.18,0,0,0,3.37,1.07c.15,0,.23.07.23.12a.45.45,0,0,1-.13.28,7.46,7.46,0,0,0-.89.89c-.12.15-.22.23-.27.23a1.44,1.44,0,0,1-.43-.16c-.66-.2-1.4-.45-2.18-.73a18.4,18.4,0,0,1-2.59-1.34,5.77,5.77,0,0,1-.73-.54,13.3,13.3,0,0,1-2.74,1.65,12.78,12.78,0,0,1-2.81,1,.44.44,0,0,1-.45-.22c-.21-.28-.41-.56-.59-.84-.1-.1-.15-.18-.15-.23a.16.16,0,0,1,.15-.17,21.53,21.53,0,0,0,2.13-.64,11.39,11.39,0,0,0,3.17-1.69c0-.06-.1-.08-.1-.11a6.19,6.19,0,0,1-1.5-2.15,11.92,11.92,0,0,1-1.26-3.12v-.22c0-.08.53-.18,1.59-.31a8.69,8.69,0,0,0,.74,2.23,8,8,0,0,0,1.39,2.15,2,2,0,0,0,.38.44,11.31,11.31,0,0,0,1-1.17,12.43,12.43,0,0,0,1.37-2.56,13.68,13.68,0,0,0,.68-1.87h-8.46c-.2,0-.28-.13-.28-.41v-.78c0-.26.08-.41.28-.41ZM623.42,140c.25,0,.38.1.38.3v5.78c0,.2.05.35.2.4a1.2,1.2,0,0,0,.71.16h.89a.68.68,0,0,0,.71-.41,8.89,8.89,0,0,0,.43-1.92c0-.11.07-.16.23-.16a1.7,1.7,0,0,1,.33.11,5.46,5.46,0,0,0,.81.3.39.39,0,0,1,.35.38,16.76,16.76,0,0,1-.78,2.81,1.39,1.39,0,0,1-1.4.66H623.8a2.86,2.86,0,0,1-1.47-.3.86.86,0,0,1-.3-.74v-6h-3.17v1.24a12.35,12.35,0,0,1-.35,3,4.49,4.49,0,0,1-1.22,2.1,8.54,8.54,0,0,1-1.6,1.22.55.55,0,0,1-.45-.18l-.66-.81a.38.38,0,0,1-.18-.31,5.1,5.1,0,0,0,2.46-2.58,9.15,9.15,0,0,0,.33-2.46v-2.28c0-.2.08-.3.28-.3Z" transform="translate(-137.71 -137.84)"/><path class="cls-3" d="M641.32,143.69c.2,0,.31.13.31.38v.79c0,.28-.11.4-.31.4H630.84c-.21,0-.28-.12-.28-.4v-.79c0-.25.07-.38.28-.38ZM640,154.36c.26,0,.38.1.38.3v7.52c0,.21-.12.31-.38.31h-1c-.28,0-.41-.1-.41-.31V161h-5.14v1.19c0,.21-.15.31-.41.31h-1c-.26,0-.38-.1-.38-.31v-7.42a.35.35,0,0,1,.38-.4Zm-.1-3.75c.18,0,.28.15.28.4v.79c0,.25-.1.38-.28.38h-7.62c-.2,0-.31-.13-.31-.38V151c0-.25.11-.4.31-.4Zm0-3.47c.18,0,.28.15.28.4v.79c0,.28-.1.4-.28.4h-7.52c-.2,0-.3-.12-.3-.4v-.79c0-.25.1-.4.3-.4Zm-.2-6.92c.2,0,.3.13.3.38v.81c0,.26-.1.38-.3.38h-7.22c-.2,0-.3-.12-.3-.38v-.81c0-.25.1-.38.3-.38Zm-1.09,19.2V156h-5.14v3.47Zm8.11-12.49V140c0-.2.12-.3.4-.3,1.24,0,1.88.1,1.88.3a.34.34,0,0,1-.26.38c-.15,0-.23.2-.23.51v6h4.94c.21,0,.31.16.31.41v.79c0,.27-.1.4-.31.4h-4.94v13.65c0,.21-.15.31-.4.31h-1c-.28,0-.4-.1-.4-.31V148.53h-4.74c-.2,0-.3-.13-.3-.4v-.79c0-.25.1-.41.3-.41Z" transform="translate(-137.71 -137.84)"/><path class="cls-3" d="M662.92,140.07c.18.15.28.25.28.35a.26.26,0,0,1-.2.28.38.38,0,0,0-.43.28c-.15.41-.31.74-.41,1h5.47a3.56,3.56,0,0,0,.54-.66,9.48,9.48,0,0,0,.91-1.75.13.13,0,0,1,.15-.15,17.52,17.52,0,0,1,2.08,1c0,.08-.1.13-.28.18a.76.76,0,0,0-.53.31c-.23.38-.48.73-.74,1.09h7.3c.2,0,.3.15.3.4v.79c0,.27-.1.4-.3.4h-7.42v1.67h6.83c.11,0,.18.1.18.31v.78c0,.28-.07.41-.18.41h-6.83v1.67h6.83c.11,0,.18.1.18.3v.79c0,.28-.07.4-.18.4h-6.83v1.57h7.82c.18,0,.28.16.28.41v.78c0,.28-.1.41-.28.41H661.91v.48c0,.2-.13.3-.38.3h-1c-.28,0-.4-.1-.4-.3v-8.08c-.16.2-.28.41-.43.58a11.58,11.58,0,0,1-1.65,1.57,1.17,1.17,0,0,1-.56-.1c-.33-.1-.66-.23-1-.35q-.15-.08-.15-.15a.18.18,0,0,1,.1-.18,11.48,11.48,0,0,0,2.43-2.61,12.14,12.14,0,0,0,1.09-1.93,17.41,17.41,0,0,0,1-2.73c.05-.1.1-.15.21-.15Zm4.23,14.69v-.89c0-.2.13-.3.41-.3,1.24,0,1.87.1,1.87.3s-.1.36-.25.39-.23.2-.23.5h9.68c.2,0,.3.15.3.41V156c0,.28-.1.41-.3.41h-8.51A17.86,17.86,0,0,0,672.7,158a23.84,23.84,0,0,0,7.52,2.66c0,.13-.1.23-.25.3a7.34,7.34,0,0,0-1,1.09c-.1.13-.2.2-.25.2a26,26,0,0,1-4.59-1.72,16.83,16.83,0,0,1-3.44-2.07,12.1,12.1,0,0,1-1.75-1.42v5.42c0,.17-.15.28-.4.28h-1c-.28,0-.41-.11-.41-.28v-4.87a7.09,7.09,0,0,1-.63.46,18.52,18.52,0,0,1-2.63,1.72,30.11,30.11,0,0,1-3.4,1.5,21.65,21.65,0,0,1-2.63.78c-.13,0-.23-.12-.33-.33-.26-.3-.53-.61-.84-.93-.15-.16-.23-.26-.23-.31a36,36,0,0,0,4.31-1.14,21.9,21.9,0,0,0,3.55-1.57,18.49,18.49,0,0,0,1.95-1.44h-8.79c-.21,0-.31-.13-.31-.41v-.78c0-.26.1-.41.31-.41Zm.71-11.17h-6v1.67h6Zm0,4.84v-1.67h-6v1.67Zm0,3.06v-1.57h-6v1.57Z" transform="translate(-137.71 -137.84)"/><path class="cls-3" d="M703.77,140c.26,0,.41.1.41.3v22c0,.21-.15.31-.41.31h-1c-.28,0-.41-.1-.41-.31v-.68h-17.3v.89c0,.17-.15.28-.41.28h-1c-.26,0-.38-.11-.38-.28V140.32c0-.2.12-.3.38-.3Zm-1.39,20.19v-18.8h-17.3v18.8Zm-9.5-16.72V142.3c0-.13.1-.2.31-.2,1.16,0,1.77.1,1.77.3s-.08.3-.18.33-.2.18-.2.46v.3h6.64c.1,0,.17.1.17.28v.61c0,.27-.07.4-.17.4h-6.64v1h4.74c.25,0,.4.1.4.28v5.06c0,.21-.15.28-.4.28H699a14.54,14.54,0,0,1,1.22,1.6,10.91,10.91,0,0,1,.88,1.57,5.06,5.06,0,0,1-1.39.4,5.23,5.23,0,0,0-.61-1.26l-1.16.07v1.68h3.34c.13,0,.2.1.2.3v.61c0,.25-.07.38-.2.38H698v1c0,1.22-.71,1.8-2.08,1.8h-1.49c-.1,0-.16-.15-.16-.45a3.78,3.78,0,0,0-.32-1.24v-.11a7.56,7.56,0,0,0,1.87.21c.3,0,.48-.28.48-.89v-.3h-5.6l.86.53c.41.33.79.61,1.09.86,0,0-.05.08-.12.18l-.69.91a13.17,13.17,0,0,0-1.49-1.12c-.43-.25-.79-.45-1.07-.58a3.35,3.35,0,0,1,.56-.78h-3.32c-.15,0-.2-.13-.2-.38v-.61c0-.2.05-.3.2-.3h9.78v-1.6l-8.51.61c-.13.38-.25.58-.38.61a.23.23,0,0,1-.23-.13l-.48-1.85,6.23-.28v-1.42h-4.63c-.28,0-.41-.07-.41-.28v-5.06c0-.18.13-.28.41-.28h4.63v-1h-6.33c-.13,0-.18-.13-.18-.4v-.61c0-.18,0-.28.18-.28Zm0,4.53v-1.09h-3.24V148Zm0,1.09h-3.24v1.09h3.24Zm1.7-1.09H698v-1.09h-3.37Zm3.37,1.09h-3.37v1.09H698Zm-.21,2.79c0-.08.23-.25.71-.51h-3.87v1.35c.86,0,1.77-.08,2.73-.13.36,0,.71,0,1-.05Z" transform="translate(-137.71 -137.84)"/><path class="cls-3" d="M484.29,182.21h-.05l-2.6,9h-2.21l-4-12.87h2.65l2.39,9h.05l2.83-9h1.81l2.83,9h.05l2.38-9h2.65l-4,12.87H486.9Z" transform="translate(-137.71 -137.84)"/><path class="cls-3" d="M503.21,182.21h0l-2.61,9h-2.2l-4-12.87H497l2.39,9h.05l2.83-9h1.82l2.83,9H507l2.37-9H512l-4,12.87h-2.22Z" transform="translate(-137.71 -137.84)"/><path class="cls-3" d="M522.12,182.21h0l-2.6,9h-2.21l-4-12.87h2.65l2.39,9h0l2.84-9H523l2.83,9h0l2.38-9h2.65l-4,12.87h-2.22Z" transform="translate(-137.71 -137.84)"/><path class="cls-3" d="M533.84,188.65h2.5v2.58h-2.5Z" transform="translate(-137.71 -137.84)"/><path class="cls-3" d="M539.81,184.78a11.41,11.41,0,0,1,.33-3.13,4.45,4.45,0,0,1,1-1.8,4.63,4.63,0,0,1,1.44-1.14,5.13,5.13,0,0,1,2.34-.51,5.36,5.36,0,0,1,2.39.51,4.52,4.52,0,0,1,1.39,1.15,4.09,4.09,0,0,1,1.06,1.8,13,13,0,0,1,.29,3.12,12.13,12.13,0,0,1-.3,3.1,4.42,4.42,0,0,1-1,1.85,4.58,4.58,0,0,1-.59.56,3,3,0,0,1-.8.53,5,5,0,0,1-2.39.56,4.87,4.87,0,0,1-2.34-.56,4.69,4.69,0,0,1-1.44-1.09,4.86,4.86,0,0,1-1-1.85A11.07,11.07,0,0,1,539.81,184.78Zm7.77,0a12.07,12.07,0,0,0-.12-2,2.44,2.44,0,0,0-.49-1.07,1.85,1.85,0,0,0-.82-.68,2.53,2.53,0,0,0-1.2-.26,2.58,2.58,0,0,0-1.18.26,2.09,2.09,0,0,0-.84.68,3,3,0,0,0-.47,1.07,9.5,9.5,0,0,0-.15,2,9.28,9.28,0,0,0,.15,2,3.21,3.21,0,0,0,.47,1.12,3,3,0,0,0,.84.66,2.59,2.59,0,0,0,1.18.27,2.52,2.52,0,0,0,2-.93,2.63,2.63,0,0,0,.49-1.12A11.3,11.3,0,0,0,547.58,184.81Z" transform="translate(-137.71 -137.84)"/><path class="cls-3" d="M553.71,173.16h2.5v14.76c0,.59.31.88.94.88H558v2.43H556.9a3.53,3.53,0,0,1-2.26-.71,2.84,2.84,0,0,1-.93-2.4Z" transform="translate(-137.71 -137.84)"/><path class="cls-3" d="M560.91,173.16h2.5v2.57h-2.5Zm0,5.2h2.5v12.87h-2.5Z" transform="translate(-137.71 -137.84)"/><path class="cls-3" d="M567.5,173.16H570v14.76c0,.59.31.88.93.88h.87v2.43H570.7a3.51,3.51,0,0,1-2.26-.71,2.84,2.84,0,0,1-.94-2.4Z" transform="translate(-137.71 -137.84)"/><path class="cls-3" d="M572.84,178.36h2.65l3,9h0l2.94-9h2.67l-5.36,15.53a3.74,3.74,0,0,1-1.43,2,4.16,4.16,0,0,1-2.09.53h-.83V194h.73a1.68,1.68,0,0,0,.92-.27,1.48,1.48,0,0,0,.58-.84l.69-2.16Z" transform="translate(-137.71 -137.84)"/><path class="cls-3" d="M586.56,188.65h2.5v2.58h-2.5Z" transform="translate(-137.71 -137.84)"/><path class="cls-3" d="M602.32,189.16a6.59,6.59,0,0,1-1.92,1.56,5.32,5.32,0,0,1-2.56.66,5.52,5.52,0,0,1-3.87-1.55q-1.72-1.56-1.77-5t1.77-5.09a5.65,5.65,0,0,1,6.43-.9,6.2,6.2,0,0,1,1.92,1.62l-1.85,1.69a3.08,3.08,0,0,0-2.53-1.35c-2.13,0-3.21,1.31-3.24,4s1.11,4,3.24,4a3,3,0,0,0,2.53-1.34Z" transform="translate(-137.71 -137.84)"/><path class="cls-3" d="M604.38,184.78a11.41,11.41,0,0,1,.33-3.13,4.45,4.45,0,0,1,1-1.8,4.63,4.63,0,0,1,1.44-1.14,5.13,5.13,0,0,1,2.34-.51,5.4,5.4,0,0,1,2.39.51,4.52,4.52,0,0,1,1.39,1.15,4.09,4.09,0,0,1,1.06,1.8,13,13,0,0,1,.29,3.12,12.13,12.13,0,0,1-.3,3.1,4.42,4.42,0,0,1-1.05,1.85,4.58,4.58,0,0,1-.59.56,3,3,0,0,1-.8.53,5,5,0,0,1-2.39.56,4.87,4.87,0,0,1-2.34-.56,4.69,4.69,0,0,1-1.44-1.09,4.86,4.86,0,0,1-1-1.85A11.07,11.07,0,0,1,604.38,184.78Zm7.77,0a12.07,12.07,0,0,0-.12-2,2.44,2.44,0,0,0-.49-1.07,1.85,1.85,0,0,0-.82-.68,2.53,2.53,0,0,0-1.2-.26,2.58,2.58,0,0,0-1.18.26,2.09,2.09,0,0,0-.84.68,3,3,0,0,0-.47,1.07,9.5,9.5,0,0,0-.15,2,9.28,9.28,0,0,0,.15,2,3.21,3.21,0,0,0,.47,1.12,3,3,0,0,0,.84.66,2.59,2.59,0,0,0,1.18.27,2.52,2.52,0,0,0,2-.93,2.63,2.63,0,0,0,.49-1.12A11.3,11.3,0,0,0,612.15,184.81Z" transform="translate(-137.71 -137.84)"/><path class="cls-3" d="M618.18,178.36h2.5v1.36h.05a4.18,4.18,0,0,1,3.36-1.52,4.8,4.8,0,0,1,2.15.46,6.33,6.33,0,0,1,1.48,1.23,5.06,5.06,0,0,1,4-1.69,4.44,4.44,0,0,1,2.93,1.13,4.32,4.32,0,0,1,1.36,3.34v8.56h-2.5v-7.67a2.76,2.76,0,0,0-.72-2.06,2.51,2.51,0,0,0-1.85-.72,2.56,2.56,0,0,0-1.87.72,2.69,2.69,0,0,0-.74,2.06v7.67h-2.51v-7.67a2.76,2.76,0,0,0-.72-2.06,2.52,2.52,0,0,0-1.86-.72,2.48,2.48,0,0,0-1.85.72,2.67,2.67,0,0,0-.76,2.06v7.67h-2.5Z" transform="translate(-137.71 -137.84)"/></svg>